<svg xmlns="http://www.w3.org/2000/svg" width="107" height="37"><g fill="none" fill-rule="evenodd"><path fill="#7137E6" d="M17.91.827L35 17.915 17.91 35.003.823 17.915 17.91.827zm0 10.114l6.975 6.974-6.974 6.974-6.975-6.974 6.975-6.974h-.001z"/><path fill="#ffffff" d="M61.666 24.76c-.798.916-1.782 1.642-2.953 2.177-1.17.535-2.52.802-4.047.802-1.39 0-2.676-.228-3.856-.687a9.058 9.058 0 0 1-3.067-1.949 9.025 9.025 0 0 1-2.037-3.018c-.491-1.171-.737-2.463-.737-3.872 0-1.443.25-2.75.75-3.922.501-1.172 1.192-2.17 2.075-2.993a9.186 9.186 0 0 1 3.104-1.897c1.188-.442 2.47-.663 3.843-.663 1.273 0 2.525.225 3.754.676 1.23.45 2.227 1.108 2.991 1.974l-2.952 2.954a3.654 3.654 0 0 0-1.604-1.248 5.314 5.314 0 0 0-2.036-.408c-.763 0-1.464.14-2.1.42a4.918 4.918 0 0 0-1.64 1.159 5.28 5.28 0 0 0-1.07 1.745 6.162 6.162 0 0 0-.382 2.203c0 .815.128 1.562.382 2.242a5.22 5.22 0 0 0 1.056 1.744 4.757 4.757 0 0 0 1.617 1.134 5.144 5.144 0 0 0 2.06.408c.866 0 1.621-.17 2.265-.51a4.393 4.393 0 0 0 1.554-1.324l3.029 2.853zm9.121 2.496v-1.758h-.05c-.152.288-.352.56-.598.815a3.74 3.74 0 0 1-.866.662 5.295 5.295 0 0 1-1.095.459 4.382 4.382 0 0 1-1.26.177c-.847 0-1.565-.152-2.15-.457a4.167 4.167 0 0 1-1.425-1.185 4.672 4.672 0 0 1-.79-1.656 7.508 7.508 0 0 1-.241-1.897V14.57h4.2v6.877c0 .357.025.696.075 1.018.052.324.15.612.293.866.136.247.333.453.573.6.238.144.552.216.942.216.73 0 1.285-.271 1.667-.815.382-.543.573-1.18.573-1.91V14.57h4.174v12.685h-4.022zm20.552-6.394c0 .883-.136 1.732-.407 2.547a6.555 6.555 0 0 1-1.184 2.153 5.847 5.847 0 0 1-1.896 1.49c-.746.373-1.595.56-2.546.56a5.677 5.677 0 0 1-2.404-.522c-.756-.348-1.337-.845-1.745-1.49h-.05v1.656h-3.843V8h4.174v7.92h.05c.357-.424.857-.814 1.502-1.17.645-.357 1.434-.535 2.368-.535.916 0 1.743.178 2.481.534.723.346 1.365.84 1.882 1.452a6.61 6.61 0 0 1 1.196 2.127c.28.806.42 1.651.42 2.534h.002zm-4.021 0c0-.407-.064-.807-.191-1.197a2.992 2.992 0 0 0-.573-1.031 2.976 2.976 0 0 0-.942-.726c-.373-.187-.806-.28-1.298-.28-.475 0-.9.093-1.272.28-.365.18-.69.43-.955.738a3.385 3.385 0 0 0-.61 1.045 3.43 3.43 0 0 0 0 2.394c.143.39.347.738.61 1.044.263.306.58.552.955.74.373.186.797.279 1.272.279.492 0 .925-.093 1.298-.28.362-.178.683-.43.942-.74.255-.304.445-.657.573-1.055.127-.4.19-.804.19-1.21zm14.543-1.4c0-.663-.208-1.232-.624-1.708-.416-.475-1.039-.712-1.87-.712-.408 0-.78.063-1.12.19a2.9 2.9 0 0 0-.891.523c-.252.217-.46.481-.611.777a2.269 2.269 0 0 0-.254.93h5.37zm3.844 1.604v.51c0 .17-.01.33-.026.483h-9.188c.033.357.14.68.318.968.178.29.407.54.687.752.28.212.593.377.942.496.347.12.708.178 1.082.178.66 0 1.221-.122 1.68-.369.44-.23.822-.557 1.12-.955l2.901 1.834a5.871 5.871 0 0 1-2.355 1.999c-.975.468-2.108.7-3.397.7a8.102 8.102 0 0 1-2.698-.444 6.55 6.55 0 0 1-2.227-1.3 6.015 6.015 0 0 1-1.503-2.101c-.364-.832-.547-1.784-.547-2.853 0-1.035.178-1.974.535-2.815a6.363 6.363 0 0 1 1.45-2.139 6.467 6.467 0 0 1 2.163-1.362 7.394 7.394 0 0 1 2.699-.485c.932 0 1.789.157 2.57.471a5.595 5.595 0 0 1 2.01 1.364c.56.594.998 1.316 1.312 2.165.314.848.47 1.817.47 2.903h.002z"/></g></svg>