<?xml version="1.0" encoding="UTF-8"?>
<svg xmlns="http://www.w3.org/2000/svg" viewBox="0 0 1522 513">
    <title>cube</title>
    <g fill="none" fill-rule="evenodd">
        <path fill="#FFFFFF" d="m256.129994.648 256.029012 256-256.029012 256L.1445 256.648l255.985494-256Zm.006506 151.521L151.644047 256.648 256.1445 361.133947 360.630447 256.648 256.1365 152.169Z"/>
        <path fill="#FFFFFF" fill-rule="nonzero" d="M882.726549 347.817538c-11.575703 13.287398-25.849501 23.818676-42.835902 31.579329-16.971895 7.760652-36.554851 11.633726-58.705349 11.633726-20.163191 0-38.81777-3.307344-55.934724-9.965549-16.587368-6.321987-31.721731-15.939487-44.489574-28.271985-12.72152-12.433862-22.775605-27.3299-29.548504-43.778785-7.122393-16.986401-10.690843-35.728015-10.690843-56.166818 0-20.932004 3.626473-39.891206 10.87942-56.892112 7.267452-17.000907 17.291024-31.477788 30.099728-43.416138 13.024309-12.082396 28.333208-21.438382 45.026292-27.517679 17.233001-6.411605 35.829556-9.617407 55.746147-9.617407 18.466002 0 36.62738 3.263826 54.455122 9.805983 17.842249 6.527652 32.304624 16.07253 43.387126 28.634633l-42.821396 42.850408c-5.887854-8.113289-13.955767-14.390567-23.267452-18.103354-9.359688-3.895753-19.395926-5.906944-29.533999-5.918405-11.067996 0-21.236627 2.030825-30.462375 6.092475-9.001843 3.90819-17.100547 9.631603-23.789664 16.81233-6.775421 7.344338-12.048257 15.943496-15.521306 25.312784-3.780361 10.225124-5.658353 21.055538-5.541251 31.956482 0 11.822303 1.856754 22.658205 5.541251 32.522212 3.393629 9.357629 8.59897 17.954329 15.318223 25.298278 6.581784 7.063793 14.572657 12.667783 23.456029 16.449682 9.44776 4.006653 19.620424 6.021433 29.88214 5.918405 12.562103 0 23.514052-2.466002 32.855847-7.398006 8.918006-4.542891 16.640579-11.122483 22.542158-19.205802l43.93835 41.385313h.014506Zm132.308251 36.206709v-25.50136h-.7253c-2.20489 4.177697-5.10607 8.1233-8.67452 11.822302-3.69592 3.797282-7.928232 7.032604-12.562103 9.602902-5.028289 2.807876-10.356428 5.041315-15.883953 6.658205-5.935113 1.740515-12.092481 2.605479-18.277425 2.568738-12.286491 0-22.701722-2.206091-31.18767-6.630388-8.093306-4.105471-15.158329-9.980595-20.670897-17.189484-5.370094-7.171099-9.265076-15.33577-11.459656-24.021759-2.333419-8.986061-3.508252-18.233607-3.496016-27.517679V200.002488h60.924847v99.757026c0 5.178604.362647 10.096102 1.087942 14.766999.754306 4.699909 2.175883 8.877607 4.250226 12.562104 1.972802 3.582955 4.830463 6.571169 8.311877 8.703535 3.452402 2.088849 8.007253 3.133273 13.664551 3.133273 10.589302 0 18.640073-3.931097 24.181327-11.822303 5.54125-7.8767 8.31187-17.116953 8.31187-27.706255v-99.394379h60.5476v184.007253h-58.3427v.014506Zm298.12511-92.75068c0 12.808703-1.9728 25.124206-5.9039 36.946509-3.70525 11.399908-9.53259 21.996427-17.17497 31.231188-7.56635 9.037339-16.93325 16.398456-27.50318 21.61378-10.82139 5.410699-23.1369 8.124164-36.932 8.124164-12.03778.054254-23.94127-2.530448-34.87217-7.57294-10.96645-5.04805-19.39438-12.257479-25.31278-21.61378h-.72529v24.021759h-55.74615V104.698771h60.5476v114.886672h.72529c5.1786-6.150498 12.43155-11.807797 21.78785-16.971894 9.3563-5.178604 20.80145-7.760653 34.34996-7.760653 13.28739 0 25.28377 2.582049 35.98912 7.746147 10.48776 5.019039 19.80054 12.18495 27.30009 21.062556 7.64773 9.118851 13.53098 19.581784 17.34905 30.854035 4.06165 11.691749 6.09247 23.949229 6.09247 36.757933h.02901Zm-58.32819 0c0-5.903899-.92838-11.706256-2.77063-17.363554-1.75079-5.487344-4.57631-10.571311-8.31188-14.955576-3.79987-4.39407-8.44751-7.97601-13.66455-10.531278-5.41069-2.712602-11.69175-4.06165-18.82865-4.06165-6.8903 0-13.0553 1.349048-18.45149 4.06165-5.29465 2.61106-10.00907 6.237534-13.85313 10.705349-3.83603 4.480423-6.83344 9.615331-8.84859 15.158658-4.1708 11.200012-4.1708 23.527095 0 34.727108 2.07434 5.657298 5.03354 10.705349 8.84859 15.144152 3.81505 4.438803 8.41342 8.007253 13.85313 10.734361 5.4107 2.698096 11.56119 4.047144 18.45149 4.047144 7.1369 0 13.41796-1.349048 18.82865-4.06165 5.25114-2.582049 9.90753-6.237534 13.66455-10.734361 3.69901-4.409791 6.45513-9.530371 8.31188-15.303717 1.84225-5.802357 2.75612-11.662738 2.75612-17.55213l.01451-.014506Zm210.9592-20.308251c0-9.617407-3.01723-17.87126-9.05168-24.776065-6.03445-6.890299-15.07162-10.328196-27.12602-10.328196-5.9184 0-11.31459.913872-16.2466 2.75612-4.72762 1.73486-9.10533 4.304491-12.92475 7.586582-3.65548 3.147779-6.67271 6.977335-8.8631 11.271079-2.18033 4.180985-3.43685 8.781643-3.6845 13.49048h77.89665Zm55.76065 23.267453v7.398005c0 2.466002-.14506 4.786945-.37715 7.006347h-133.28015c.4787 5.178603 2.03083 9.864007 4.61288 14.041704 2.58205 4.206709 5.9039 7.833182 9.96555 10.908432 4.06165 3.075249 8.60199 5.468721 13.66455 7.194923 5.03354 1.740707 10.27017 2.582048 15.69537 2.582048 9.57389 0 17.7117-1.769714 24.3699-5.352674 6.3826-3.336355 11.92385-8.079782 16.2466-13.853128l42.0816 26.603808c-8.59458 12.541838-20.39 22.554172-34.16138 28.99728-14.14324 6.788758-30.57842 10.154125-49.27652 10.154125-13.3163.085871-26.55036-2.092009-39.1369-6.440616-11.91139-4.083179-22.89236-10.493267-32.30462-18.857661-9.38891-8.460081-16.82789-18.858822-21.80236-30.476881-5.28014-12.068903-7.93472-25.878514-7.93472-41.385313 0-15.0136 2.58205-28.634633 7.76065-40.834089 4.81508-11.672509 11.97387-22.232957 21.03355-31.028105 9.04012-8.607591 19.7072-15.324446 31.37624-19.757027 12.49764-4.765803 25.77643-7.151951 39.15141-7.035358 13.51949 0 25.95104 2.277426 37.28014 6.832276 11.05066 4.380523 21.00416 11.135039 29.15685 19.786038 8.1233 8.6165 14.47688 19.089755 19.03173 31.405258 4.55485 12.300998 6.81777 26.357208 6.81777 42.110608h.02901Z"/>
    </g>
</svg>