<svg xmlns="http://www.w3.org/2000/svg" width="209" height="37"><g fill="none" fill-rule="evenodd"><path fill="#3b3f53" d="M18.932 37L0 18.068h11.162l7.77 7.77 6.906-6.906H37L18.932 37zM0 18.068L18.068 0v11.162l-6.906 6.906H0z"/><path fill="#26E0D6" d="M19.684.101V.31l.014 10.956 1.276 1.276 4.081-7.069z"/><path fill="#0C7BF8" d="M26.182 6.599L22.1 13.668l1.511 1.511 7.07-4.081z"/><path fill="#7137E6" d="M31.807 12.224l-7.069 4.082 1.083 1.083 10.967.015h.198z"/></g><path fill="#3b3f53" d="M61.837 13.048c-1.668-1.566-4.288-2.382-6.806-2.382-3.233 0-7.044 1.633-7.044 5.683 0 3.198 2.586 4.39 4.934 4.934 2.314.544 3.369.885 3.369 1.94 0 1.088-1.089 1.463-2.008 1.463-1.633 0-3.164-.817-4.151-1.906L47 26.081c1.77 1.701 4.628 2.62 7.384 2.62 3.471 0 7.249-1.497 7.249-5.785 0-3.3-2.825-4.594-5.411-5.172-2.178-.477-3.097-.749-3.097-1.702 0-.987 1.055-1.36 2.11-1.36 1.361 0 2.654.68 3.54 1.53l3.062-3.164zm7.52 4.696c.136-1.736 1.702-3.233 3.846-3.233 2.211 0 3.334 1.463 3.334 3.233h-7.18zm12.319 2.144c0-5.785-3.505-9.222-8.508-9.222-5.138 0-9.153 3.539-9.153 9.086 0 5.716 4.22 8.95 9.324 8.95 3.437 0 6.09-1.294 7.69-3.608l-3.88-2.45c-.748 1.02-1.973 1.77-3.742 1.77-2.008 0-3.88-1.328-4.05-3.2h12.285c.034-.408.034-.884.034-1.326zm18.376-6.942c-1.327-1.361-3.88-2.28-6.296-2.28-5.274 0-9.46 3.505-9.46 9.018 0 5.614 4.152 9.017 9.494 9.017 2.484 0 4.866-.816 6.262-2.178l-3.097-3.777c-.68.817-1.906 1.26-3.029 1.26-2.45 0-3.981-1.974-3.981-4.322 0-2.349 1.565-4.356 3.913-4.356 1.123 0 2.348.544 2.96 1.36l3.234-3.742zm18.75 15.21V11.21h-5.581v9.154c0 1.94-1.055 3.641-2.995 3.641-2.041 0-2.518-1.701-2.518-3.607V11.21h-5.615v10.481c0 3.403 1.6 6.942 6.16 6.942 2.382 0 4.321-1.327 5.104-2.824h.068v2.348h5.377zm15.585-17.286c-.272-.102-.748-.136-1.19-.136-2.077 0-3.744 1.225-4.595 2.926h-.068v-2.45h-5.377v16.947h5.581v-8.712c0-1.395.987-3.845 3.982-3.845.442 0 .919.034 1.429.17l.238-4.9zm8.303-5.07c0-1.702-1.429-3.063-3.199-3.063-1.803 0-3.198 1.43-3.198 3.063 0 1.667 1.395 3.062 3.198 3.062 1.77 0 3.2-1.327 3.2-3.062zm-.408 22.357V11.21h-5.58v16.947h5.58zm23.31-8.542c0-4.73-3.063-8.881-7.997-8.881-2.484 0-4.22 1.157-5.172 2.28h-.068V2.43h-5.581v25.726h5.138v-2.212h.068c1.09 1.701 3.301 2.688 5.547 2.688 5.104 0 8.065-4.287 8.065-9.018zm-5.377 0c0 2.212-1.36 4.39-4.015 4.39-2.518 0-4.084-2.144-4.084-4.356 0-2.143 1.566-4.355 4.084-4.355 2.654 0 4.015 2.144 4.015 4.321zm26.883 0c0-5.546-4.287-8.95-9.426-8.95-5.104 0-9.392 3.404-9.392 8.95 0 5.547 4.288 9.086 9.392 9.086 5.139 0 9.426-3.539 9.426-9.086zm-5.376 0c0 2.178-1.395 4.39-4.016 4.39-2.62 0-4.015-2.212-4.015-4.39 0-2.177 1.361-4.321 3.981-4.321s4.05 2.144 4.05 4.321zm27.053 8.542l-6.704-8.882 6.092-8.065h-6.296l-3.199 4.526-3.164-4.526h-6.5l6.125 8.065-6.771 8.882h6.465l3.743-5.207 3.641 5.207h6.568z"/></svg>