<svg xmlns="http://www.w3.org/2000/svg" width="1021" height="162" viewBox="0 0 1021 162"><title>securibox-punchout</title><g id="Layer_2" data-name="Layer 2"><g id="Layer_1-2" data-name="Layer 1"><g id="securibox"><g id="icon"><polygon id="base" points="83.4 112.9 49.1 79 77.1 51 77.1 2 0 79 83.4 162 160 85.9 110.9 85.9 83.4 112.9" style="fill:#fff"/><polygon id="vault" points="108 21.1 86.9 0 86.9 49.1 90.3 52.5 108 21.1" style="fill:#3cdbc0"/><polygon id="sca" points="101.6 63.8 133 46.1 115.8 29 97.7 59.9 101.6 63.8" style="fill:#307fe2"/><polygon id="cube" points="113.9 76.1 163 76.1 140.4 53.5 109.5 71.7 113.9 76.1" style="fill:#7137e6"/></g><path id="name" d="M285.2,56c-8.3-7.4-21.6-11.8-33.9-11.8C235.1,44.2,216,52,216,71.7c0,15.7,12.8,21.1,24.5,24.1s16.7,4.4,16.7,9.3-5.4,6.9-9.8,6.9a28.1,28.1,0,0,1-20.6-9.3l-15.7,16.7c8.8,8.3,23.1,12.8,36.8,12.8,17.2,0,36.3-7.4,36.3-28,0-16.2-14.2-22.1-27-25-10.8-2.5-15.7-3.4-15.7-8.3s5.4-6.4,10.8-6.4,13.3,3.4,17.7,7.4L285.2,56ZM323,78.5c.5-8.3,8.3-15.7,19.1-15.7s16.7,6.9,16.7,15.7Zm61.8,10.3c0-28-17.7-44.7-42.7-44.7s-45.7,17.2-45.7,44.2S317.6,132,343.1,132c17.2,0,30.4-6.4,38.3-17.7l-19.6-11.8a22.8,22.8,0,0,1-18.7,8.8c-9.8,0-19.6-6.4-20.1-15.7h61.4A32.4,32.4,0,0,0,384.8,88.8Zm91.8-33.4c-6.9-6.4-19.6-11.3-31.4-11.3-26.5,0-47.1,17.2-47.1,43.7s20.6,43.7,47.6,43.7c12.3,0,24.5-3.9,31.4-10.8l-15.7-17.7c-3.4,3.9-9.3,5.9-15.2,5.9-12.3,0-20.1-9.8-20.1-21.1s7.9-21.1,19.6-21.1c5.4,0,11.8,2.5,14.7,6.4l16.2-17.7Zm93.8,73.6v-82h-28V91.8c0,9.3-5.4,17.7-15.2,17.7s-12.8-8.3-12.8-17.7V47.1h-28v51c0,16.7,7.9,33.9,30.9,33.9,11.8,0,21.6-6.4,25.5-13.7h.5v11.3l27-.5Zm78-83.9a22,22,0,0,0-5.9-.5,25.9,25.9,0,0,0-23.1,14.2H619V47.1H592v82.5h28V87.4c0-6.9,4.9-18.7,20.1-18.7a20.3,20.3,0,0,1,7.4,1l1-24.5Zm41.7-24.5c0-8.3-7.4-14.7-16.2-14.7s-16.2,6.9-16.2,14.7,6.9,14.7,16.2,14.7,16.2-6.4,16.2-14.7Zm-2,108.5v-82h-28v82.5h28ZM805,87.9c0-23.1-15.2-43.2-40.3-43.2-12.3,0-21.1,5.4-26,11.3h-.5V4.4h-28V129.6h25.5V118.8h.5c5.4,8.3,16.7,13.3,28,13.3,25.5-.5,40.7-21.1,40.7-44.2Zm-27,0c0,10.8-6.9,21.1-20.1,21.1s-20.6-10.3-20.6-21.1,7.9-21.1,20.6-21.1S778,77.1,778,87.9Zm134.5,0c0-27-21.6-43.7-47.1-43.7s-47.1,16.7-47.1,43.7S839.9,132,865.4,132,912.5,114.9,912.5,87.9Zm-27,0c0,10.8-6.9,21.1-20.1,21.1s-20.1-10.8-20.1-21.1,6.9-21.1,20.1-21.1,20.1,10.3,20.1,21.1ZM1021,129.1,987.6,85.9l30.4-39.3H986.6L970.4,68.7,954.7,46.6H922.3l30.4,39.3-33.9,43.2h32.4L970,103.6l18.2,25.5Z" style="fill:#fff"/></g></g></g></svg>