<?xml version="1.0" encoding="UTF-8"?>
<svg width="961px" height="1077px" viewBox="0 0 961 1077" version="1.1" xmlns="http://www.w3.org/2000/svg" xmlns:xlink="http://www.w3.org/1999/xlink">
    <title>pattern</title>
    <g id="Page-1" stroke="none" stroke-width="1" fill="none" fill-rule="evenodd" stroke-linejoin="round">
        <g id="pattern" transform="translate(0.742442, 24.711910)" fill-rule="nonzero" stroke-width="48">
            <path d="M643.080738,567.478302 L779.301818,567.478302 C816.822071,567.478302 847.234155,597.648656 847.234155,634.864959 L847.234155,654.192983 L847.234155,683.989727" id="Shape" stroke="#FF6584"></path>
            <line x1="827.894899" y1="697.986155" x2="685.20821" y2="696.179994" id="Shape-Copy-13" stroke="#52FEB0" transform="translate(756.551555, 697.083074) rotate(269.274776) translate(-756.551555, -697.083074) "></line>
            <line x1="738.681132" y1="697.986155" x2="595.994443" y2="696.179994" id="Shape-Copy-14" stroke="#52FEB0" transform="translate(667.337788, 697.083074) rotate(269.274776) translate(-667.337788, -697.083074) "></line>
            <line x1="846.69061" y1="719.62215" x2="846.69061" y2="766.79799" id="Shape" stroke="#D0FB27"></line>
            <line x1="1046.18077" y1="654.593979" x2="814.960145" y2="651.667135" id="Shape" stroke="#40415E" transform="translate(930.281159, 653.102194) rotate(269.274776) translate(-930.281159, -653.102194) "></line>
            <line x1="847.236142" y1="378.22457" x2="847.236142" y2="602.177764" id="Shape" stroke="#D0FB27" transform="translate(847.031772, 490.403550) rotate(90.000000) translate(-847.031772, -490.403550) "></line>
            <line x1="172.007457" y1="499.210696" x2="172.007457" y2="841.936482" id="Shape" stroke="#FF6584" transform="translate(171.803086, 670.665167) rotate(90.000000) translate(-171.803086, -670.665167) "></line>
            <path d="M496.840491,803.241922 C556.78069,803.241922 627.615993,803.241922 709.346398,803.241922 C831.942006,803.241922 931.305857,903.978172 931.305857,1028.24192" id="Shape" stroke="#FF6584" transform="translate(714.073174, 915.741922) scale(1, -1) translate(-714.073174, -915.741922) "></path>
            <path d="M583.447131,803.241922 C608.231902,803.241922 647.320398,803.241922 700.712621,803.241922 C780.800954,803.241922 845.712621,868.160839 845.712621,948.241922" id="Shape-Copy-9" stroke="#52FEB0" transform="translate(714.579876, 875.741922) scale(1, -1) translate(-714.579876, -875.741922) "></path>
            <path d="M643.080738,803.241922 C654.922635,803.241922 672.258472,803.241922 695.08825,803.241922 C729.332917,803.241922 757.08825,831.000355 757.08825,865.241922" id="Shape-Copy-7" stroke="#40415E" transform="translate(700.084494, 834.241922) scale(1, -1) translate(-700.084494, -834.241922) "></path>
            <path d="M0.531771569,5.68434189e-14 L179.367349,5.68434189e-14 C338.677421,5.68434189e-14 467.827556,129.412118 467.827556,289.048939 C467.827556,448.685759 338.677421,578.097877 179.367349,578.097877 L0.531771569,578.097877" id="Shape" stroke="#D0FB27"></path>
            <path d="M0.531771569,87.4035502 L180.159931,87.4035502 C290.875806,87.4035502 380.6314,177.84238 380.6314,289.40355 C380.6314,400.96472 290.875806,491.40355 180.159931,491.40355 L0.531771569,491.40355" id="Shape" stroke="#52FEB0"></path>
            <line x1="559.906216" y1="568.478302" x2="607.213989" y2="568.478302" id="Shape-Copy" stroke="#52FEB0"></line>
            <path d="M583.447131,625.734014 L583.663215,677.954371 C583.663215,702.071603 564.172578,721.62215 540.144544,721.62215 C516.106428,721.62215 496.615791,702.071603 496.615791,677.954371 L496.73245,663.491229 C496.73245,639.55711 477.393059,620.155278 453.546521,620.155278 C429.689901,620.155278 410.35051,639.55711 410.35051,663.491229 L410.017768,699.622347" id="Shape" stroke="#D0FB27"></path>
            <line x1="643.080738" y1="490.40355" x2="690.388511" y2="490.40355" id="Shape" stroke="#40415E"></line>
            <line x1="911.591181" y1="335.358726" x2="958.898954" y2="335.358726" id="Shape-Copy-5" stroke="#40415E"></line>
            <line x1="559.906216" y1="490.40355" x2="607.213989" y2="490.40355" id="Shape-Copy" stroke="#FF6584"></line>
            <g id="Group" transform="translate(759.689289, 416.506720) rotate(-180.000000) translate(-759.689289, -416.506720) translate(559.846806, 415.506720)">
                <line x1="287.389336" y1="-111.17898" x2="287.389336" y2="112.774214" id="Shape-Copy-12" stroke="#D0FB27" transform="translate(287.184965, 1.000000) rotate(90.000000) translate(-287.184965, -1.000000) "></line>
                <line x1="87.2339317" y1="1" x2="134.541705" y2="1" id="Shape-Copy-11" stroke="#40415E"></line>
                <line x1="0.0594096636" y1="1" x2="47.3671826" y2="1" id="Shape-Copy-10" stroke="#FF6584"></line>
            </g>
            <line x1="889.257558" y1="3" x2="959.327401" y2="3" id="Shape-Copy-2" stroke="#52FEB0"></line>
            <path d="M583.563781,358.921657 L583.563781,263.144045 C583.563781,119.470825 700.021598,3 843.707826,3" id="Shape" stroke="#40415E"></path>
            <path d="M667.021328,358.921657 L667.021328,289.075503 C667.021328,177.429303 757.79818,86.9216572 869.799106,86.9216572 C870.903206,86.9216572 900.745971,86.9216572 959.327401,86.9216572" id="Shape" stroke="#D0FB27"></path>
            <path d="M754.529185,358.921657 L754.529185,312.705038 C754.529185,234.40044 818.196778,170.921657 896.750168,170.921657 C897.524544,170.921657 918.383622,170.921657 959.327401,170.921657" id="Shape-Copy-3" stroke="#FF6584"></path>
            <path d="M847.124123,358.921657 L847.124123,333.60085 C847.124123,290.699926 882.005837,255.921657 925.043066,255.921657 C925.467325,255.921657 936.895437,255.921657 959.327401,255.921657" id="Shape-Copy-4" stroke="#52FEB0"></path>
            <line x1="584.051177" y1="803.241922" x2="584.051177" y2="888.28809" id="Shape" stroke="#FF6584"></line>
            <path d="M0.531771569,843.336832 C147.253529,843.336832 245.37295,843.336832 294.890035,843.336832 C369.165663,843.336832 429.366127,903.824053 429.366127,978.438394 L429.366127,1051.33683" id="Shape" stroke="#D0FB27"></path>
            <path d="M0.531771569,754.736832 C132.948851,754.736832 237.27521,754.736832 313.510848,754.736832 C427.864304,754.736832 520.547885,847.861899 520.547885,962.736832" id="Shape-Copy-8" stroke="#40415E"></path>
            <path d="M0,932.613479 C154.958642,932.613479 245.634972,932.613479 272.028989,932.613479 C311.620014,932.613479 343.708576,964.854891 343.708576,1004.62646 L343.708576,1051.33683" id="Shape-Copy-6" stroke="#52FEB0"></path>
        </g>
    </g>
</svg>